<svg xmlns="http://www.w3.org/2000/svg" viewBox="0 0 1200 800" preserveAspectRatio="xMidYMid slice" role="img" aria-labelledby="title-hero-cleaning desc-hero-cleaning">
  <title id="title-hero-cleaning">Cleaning operations</title>
  <desc id="desc-hero-cleaning">Stylized abstract illustration representing cleaning and hygiene services with warm metallic accents.</desc>
  <defs>
    <linearGradient id="a" x1="0" x2="1" y1="0" y2="1">
      <stop offset="0%" stop-color="#1B1B1B"/>
      <stop offset="100%" stop-color="#111111"/>
    </linearGradient>
  </defs>
  <rect width="1200" height="800" fill="url(#a)"/>
  <path d="M0 0 L1200 0 L1200 800 L0 600 Z" fill="#111" opacity="0.65"/>
  <path d="M0 240 L1200 180 L1200 420 L0 460 Z" fill="#B08D57" opacity="0.08"/>
  <circle cx="860" cy="460" r="220" fill="#B08D57" opacity="0.12"/>
  <path d="M720 680c0-80 55-120 95-140 35-18 70-24 115-14" stroke="#C0C0C0" stroke-width="18" fill="none" opacity="0.18"/>
  <path d="M120 680h360" stroke="#B08D57" stroke-width="18" opacity="0.24"/>
  <g opacity="0.7" fill="#C0C0C0">
    <rect x="220" y="220" width="540" height="340" rx="40"/>
    <rect x="280" y="280" width="420" height="240" rx="32" fill="#111"/>
  </g>
  <g fill="none" stroke="#B08D57" stroke-width="12" stroke-linecap="round" stroke-linejoin="round">
    <path d="M316 314h160"/>
    <path d="M316 364h420"/>
    <path d="M316 428h220"/>
    <path d="M552 564h100"/>
  </g>
  <g fill="#B08D57" opacity="0.8">
    <rect x="360" y="350" width="180" height="20" rx="10"/>
    <rect x="400" y="410" width="120" height="20" rx="10"/>
    <rect x="520" y="470" width="80" height="20" rx="10"/>
  </g>
</svg>
